<svg width="23" height="17" viewBox="0 0 23 17" fill="none" xmlns="http://www.w3.org/2000/svg">
<path fill-rule="evenodd" clip-rule="evenodd" d="M6.66051 4.6073L0.605544 0L0 0.795812L5.66883 5.1093C4.29216 5.88724 3.12 6.90881 2.2531 8.10268C2.24214 8.11778 2.23189 8.13338 2.22238 8.14943C1.99483 8.53357 2.04049 8.99619 2.18055 9.35086C2.19908 9.39779 2.22346 9.44219 2.2531 9.48302C4.27771 12.2713 7.96735 14.1197 12.0386 14.1197C13.6061 14.1197 15.1171 13.8457 16.4982 13.3495L21.1108 16.8593L21.7164 16.0635L17.5697 12.9082C19.3102 12.0952 20.786 10.9127 21.8241 9.48302C21.8351 9.46792 21.8453 9.45232 21.8548 9.43627C22.0665 9.0789 22.0665 8.59121 21.8548 8.23383C21.8469 8.22037 21.8384 8.20722 21.8294 8.19442C19.8059 5.31789 16.2139 3.466 12.0386 3.466C10.1157 3.466 8.27793 3.87834 6.66051 4.6073ZM6.71917 5.90851C5.30484 6.62131 4.11371 7.60308 3.26375 8.75364L3.26361 8.7612C3.26361 8.78245 3.26689 8.81255 3.27662 8.84943C5.06427 11.256 8.34632 12.9197 12.0386 12.9197C13.1878 12.9197 14.2973 12.7585 15.3344 12.4639L13.6686 11.1965C13.1807 11.4475 12.6178 11.5874 12.0386 11.5874C10.3706 11.5874 8.83855 10.4275 8.83855 8.79281C8.83855 8.40066 8.92672 8.03582 9.08378 7.70778L6.71917 5.90851ZM9.67742 6.90291L7.76417 5.44709C9.06913 4.94775 10.5191 4.666 12.0386 4.666C15.8377 4.666 19.0282 6.33661 20.8119 8.83414C19.7904 10.2161 18.2765 11.3543 16.475 12.0752L14.5061 10.5771C14.9579 10.1051 15.2386 9.49246 15.2386 8.79281C15.2386 7.1581 13.7065 5.99822 12.0386 5.99822C11.139 5.99822 10.2789 6.33561 9.67742 6.90291ZM10.0828 8.46796C10.0536 8.57512 10.0386 8.68412 10.0386 8.79281C10.0386 9.58218 10.8346 10.3874 12.0386 10.3874C12.2151 10.3874 12.3828 10.3701 12.5405 10.3381L10.0828 8.46796ZM13.5398 9.84183L10.6532 7.64537C10.9984 7.37556 11.4736 7.19822 12.0386 7.19822C13.2425 7.19822 14.0386 8.00344 14.0386 8.79281C14.0386 9.16837 13.8584 9.54752 13.5398 9.84183Z" fill="#969696"/>
</svg>
